<?xml version="1.0" encoding="UTF-8" standalone="no"?>
<!-- Created with Inkscape (http://www.inkscape.org/) -->

<svg
   xmlns:dc="http://purl.org/dc/elements/1.1/"
   xmlns:cc="http://creativecommons.org/ns#"
   xmlns:rdf="http://www.w3.org/1999/02/22-rdf-syntax-ns#"
   xmlns:svg="http://www.w3.org/2000/svg"
   xmlns="http://www.w3.org/2000/svg"
   xmlns:sodipodi="http://sodipodi.sourceforge.net/DTD/sodipodi-0.dtd"
   xmlns:inkscape="http://www.inkscape.org/namespaces/inkscape"
   width="30"
   height="30"
   id="svg2"
   version="1.1"
   inkscape:version="0.48.2 r9819"
   sodipodi:docname="bulb_light.svg">
  <defs
     id="defs4" />
  <sodipodi:namedview
     id="base"
     pagecolor="#ffffff"
     bordercolor="#666666"
     borderopacity="1.0"
     inkscape:pageopacity="0.0"
     inkscape:pageshadow="2"
     inkscape:zoom="11.2"
     inkscape:cx="19.478363"
     inkscape:cy="11.316221"
     inkscape:document-units="px"
     inkscape:current-layer="layer2"
     showgrid="false"
     inkscape:window-width="1280"
     inkscape:window-height="752"
     inkscape:window-x="0"
     inkscape:window-y="0"
     inkscape:window-maximized="0">
    <inkscape:grid
       type="xygrid"
       id="grid3071"
       empspacing="5"
       visible="true"
       enabled="true"
       snapvisiblegridlinesonly="true" />
  </sodipodi:namedview>
  <metadata
     id="metadata7">
    <rdf:RDF>
      <cc:Work
         rdf:about="">
        <dc:format>image/svg+xml</dc:format>
        <dc:type
           rdf:resource="http://purl.org/dc/dcmitype/StillImage" />
        <dc:title></dc:title>
      </cc:Work>
    </rdf:RDF>
  </metadata>
  <g
     inkscape:label="Calque 1"
     inkscape:groupmode="layer"
     id="layer1"
     transform="translate(0,-1022.3622)" />
  <g
     inkscape:groupmode="layer"
     id="layer2"
     inkscape:label="Calque"
     transform="translate(0,-1022.3622)">
    <path
       id="path3775"
       style="fill:none;stroke:#000000;stroke-width:0.33166873;stroke-linecap:butt;stroke-linejoin:miter;stroke-miterlimit:4;stroke-opacity:1;stroke-dasharray:none"
       d="m 20.423208,1042.671 c 0,0 -0.655055,2.7843 -0.925801,3.6643 -0.60919,1.3537 -0.778825,2.0923 -1.929507,3.1075 -1.556815,0.6093 -3.303327,0.5894 -5.130886,-0.02 -0.541502,-0.3384 -1.300493,-1.1843 -2.112749,-3.215 -0.4738134,-0.9476 -0.7788163,-3.4495 -0.7788163,-3.4495 -0.7445678,-0.4738 -0.3185535,-0.169 -0.3185535,-0.169 -2.1109673,-1.6588 -3.4545385,-4.1424 -3.4974091,-6.7628 0,-4.8639 4.0500175,-8.8066 9.0459709,-8.8066 4.995955,0 9.045972,3.9427 9.045972,8.8066 0,2.5859 -1.077137,4.8438 -2.900282,6.455 0,0 -0.02417,0.05 -0.497939,0.3894 z"
       inkscape:connector-curvature="0"
       sodipodi:nodetypes="ccccccccsscc" />
    <path
       style="fill:none;stroke:#000000;stroke-width:0.33166873;stroke-linecap:butt;stroke-linejoin:miter;stroke-miterlimit:4;stroke-opacity:1;stroke-dasharray:none"
       d="m 15.776197,1042.4752 1.353749,-3.5875 c 0,0 -1.015011,0.045 -1.624201,-0.6321 0,0 -1.285795,0.589 -1.759607,-0.02 -0.135378,0.7445 -1.82813,0.5845 -1.82813,0.5845 l 1.692193,3.6552"
       id="path3785"
       inkscape:connector-curvature="0"
       sodipodi:nodetypes="cccccc" />
    <path
       style="fill:none;stroke:#000000;stroke-width:0.33166873;stroke-linecap:butt;stroke-linejoin:miter;stroke-miterlimit:4;stroke-opacity:1;stroke-dasharray:none"
       d="m 12.053387,1049.1085 -0.270747,-5.9565 c 0,0 0.913407,-0.9127 2.977884,-0.9127 2.064467,0 3.046301,0.845 3.046301,0.845 l 0,6.0242"
       id="path3787"
       inkscape:connector-curvature="0"
       sodipodi:nodetypes="cczcc" />
    <path
       style="fill:#ffffff;fill-opacity:1;stroke:#000000;stroke-width:0.36822975;stroke-miterlimit:4;stroke-opacity:1"
       d="m 9.8873896,1045.0472 c 3.6551224,-2.1659 6.5961434,-2.1659 10.0482084,0 0,0 -0.406123,1.7598 -1.015313,2.2337 0,0 0.270744,2.1659 -0.744559,2.4366 0.541491,1.3539 -1.150691,2.1633 -2.910564,2.231 -2.147006,0.034 -3.279739,-1.0762 -3.144087,-2.0278 0,0 -1.353748,-0.9476 -1.083003,-2.6398 -1.1506824,-0.5415 -1.1506824,-2.2337 -1.1506824,-2.2337 z"
       id="rect3791"
       inkscape:connector-curvature="0"
       sodipodi:nodetypes="cccccccc" />
    <path
       style="fill:none;stroke:#000000;stroke-width:0.33166873;stroke-linecap:butt;stroke-linejoin:miter;stroke-miterlimit:4;stroke-opacity:1;stroke-dasharray:none"
       d="m 11.17345,1047.2133 c 0,0 1.421467,-0.8797 3.926172,-0.8458 2.504705,0.034 3.722516,0.9134 3.722516,0.9134"
       id="path3794"
       inkscape:connector-curvature="0"
       sodipodi:nodetypes="czc" />
    <path
       style="fill:none;stroke:#000000;stroke-width:0.33166873;stroke-linecap:butt;stroke-linejoin:miter;stroke-miterlimit:4;stroke-opacity:1;stroke-dasharray:none"
       d="m 12.053387,1049.853 c 0,0 2.099415,-0.7457 3.114729,-0.7796 1.015313,-0.034 2.909455,0.5765 2.909455,0.5765"
       id="path3796"
       inkscape:connector-curvature="0"
       sodipodi:nodetypes="czc" />
    <path
       style="fill:none;stroke:#000000;stroke-width:0.33166873;stroke-linecap:butt;stroke-linejoin:miter;stroke-miterlimit:4;stroke-opacity:1;stroke-dasharray:none"
       d="m 5.5553885,1039.6323 -3.5874429,2.3014"
       id="path3798"
       inkscape:connector-curvature="0" />
    <path
       style="fill:none;stroke:#000000;stroke-width:0.33166873;stroke-linecap:butt;stroke-linejoin:miter;stroke-miterlimit:4;stroke-opacity:1;stroke-dasharray:none"
       d="m 5.4200107,1030.9005 -4.0612458,-1.7597"
       id="path3802"
       inkscape:connector-curvature="0" />
    <path
       style="fill:none;stroke:#000000;stroke-width:0.33166873;stroke-linecap:butt;stroke-linejoin:miter;stroke-miterlimit:4;stroke-opacity:1;stroke-dasharray:none"
       d="m 8.872076,1027.2455 -2.5721291,-3.2491"
       id="path3806"
       inkscape:connector-curvature="0" />
    <path
       style="fill:none;stroke:#000000;stroke-width:0.33166873;stroke-linecap:butt;stroke-linejoin:miter;stroke-miterlimit:4;stroke-opacity:1;stroke-dasharray:none"
       d="m 14.557827,1025.9593 -0.06766,-3.6551"
       id="path3808"
       inkscape:connector-curvature="0" />
    <path
       style="fill:none;stroke:#000000;stroke-width:0.33166873;stroke-linecap:butt;stroke-linejoin:miter;stroke-miterlimit:4;stroke-opacity:1;stroke-dasharray:none"
       d="m 20.175887,1026.9746 3.587434,-3.0458"
       id="path3810"
       inkscape:connector-curvature="0" />
    <path
       style="fill:none;stroke:#000000;stroke-width:0.33166873;stroke-linecap:butt;stroke-linejoin:miter;stroke-miterlimit:4;stroke-opacity:1;stroke-dasharray:none"
       d="m 23.492575,1030.3591 3.655122,-1.8953"
       id="path3812"
       inkscape:connector-curvature="0" />
    <path
       style="fill:none;stroke:#000000;stroke-width:0.33166873;stroke-linecap:butt;stroke-linejoin:miter;stroke-miterlimit:4;stroke-opacity:1;stroke-dasharray:none"
       d="m 24.778635,1035.3003 4.264312,-0.067"
       id="path3814"
       inkscape:connector-curvature="0" />
    <path
       style="fill:none;stroke:#000000;stroke-width:0.33166873;stroke-linecap:butt;stroke-linejoin:miter;stroke-miterlimit:4;stroke-opacity:1;stroke-dasharray:none"
       d="m 23.966387,1039.4968 3.587434,2.8429"
       id="path3816"
       inkscape:connector-curvature="0" />
    <path
       style="fill:none;stroke:#000000;stroke-width:0.33166873;stroke-linecap:butt;stroke-linejoin:miter;stroke-miterlimit:4;stroke-opacity:1;stroke-dasharray:none"
       d="m 4.6077635,1035.3003 -3.72281113,-0.067"
       id="path3840"
       inkscape:connector-curvature="0" />
  </g>
</svg>
